# xmcd
#
# Track frame offsets:
#	150
#	19672
#	38437
#	56495
#	77197
#	94860
#	113737
#	131770
#	151860
#	171472
#
# Disc length: 2568 seconds
#
# Revision: 3
# Processed by: cddbd v1.5.2PL0 Copyright (c) Steve Scherf et al.
# Submitted via: EasyCDDAExtractor 15.3.0.1
#
DISCID=760a060a
DTITLE=Gisselle - Quiero Estar Contigo
DYEAR=1997
DGENRE=Latin
TTITLE0=Quiero Estar Contigo
TTITLE1=Lo Quiero Olvidar
TTITLE2=Candela
TTITLE3=Atrevete
TTITLE4=Cuanto Daria Yo
TTITLE5=Tenia Una Amante
TTITLE6=Arrepentido
TTITLE7=A Mi Rival
TTITLE8=Busco Un Amor
TTITLE9=Perdoname, Olvidalo (A Duo Con Sergio Vargas)
EXTD=YEAR: 1997
EXTT0=
EXTT1=
EXTT2=
EXTT3=
EXTT4=
EXTT5=
EXTT6=
EXTT7=
EXTT8=
EXTT9=
PLAYORDER=
